<svg xmlns="http://www.w3.org/2000/svg" viewBox="0 0 557.56 641.63"><defs><style>.cls-1,.cls-3{fill:#ffd400;}.cls-1,.cls-2{stroke:#af5928;stroke-miterlimit:10;stroke-width:2px;}.cls-2{fill:#fff;}</style></defs><title>MMlogo</title><g id="Layer_1" data-name="Layer 1"><path class="cls-1" d="M426.5,106.5c18-13,34,2,37,35s-43,41-54,29-29-34-14-62,44-44,90-31c45,16,40,78,40,88,.69,5.55-5,299-5,299,42,33,80,79,83,176-4,86-31,92-70,34-33-61-25-145-21-156-19-5-146-102-136-190,24-148,194-148,221-40,10,74-27,103-87,108-64-8-105-95-30-132-31,27-26,90,31,91,58,6,94-109,1-129-14-8-78-7-112,61s78,165,111,173c-2-45,2-310,2-310-4-50-17-64-42-68C437.5,79.5,419.5,89.5,426.5,106.5Z" transform="translate(-374.94 -71.92)"/><path class="cls-2" d="M521.5,522.5c19,2,105,115,58,132C534.5,654.5,510.5,570.5,521.5,522.5Z" transform="translate(-374.94 -71.92)"/><path class="cls-1" d="M594.32,573.44S789.5,463.5,784.5,338.5s-69-111-88-110-67.5,24.5-66,50c2.5,11.5,18,8,18,8,16.5-6.5,59-4,56,34s-73,71-104,5c-9-54,33-91,72-103,60-17,161-7,170,106,7,79-62.49,172.87-245.74,254.93" transform="translate(-374.94 -71.92)"/><circle class="cls-1" cx="532.06" cy="214.08" r="24.5"/><circle class="cls-1" cx="521.06" cy="315.08" r="25.5"/><path class="cls-3" d="M530.43,219.91A41.08,41.08,0,0,0,506,214.63c-1.91.18-1.92,3.18,0,3a38.25,38.25,0,0,1,22.91,4.87,1.5,1.5,0,0,0,1.51-2.59Z" transform="translate(-374.94 -71.92)"/><path class="cls-3" d="M527.06,218.44l-1.6-1.63-1.82,2.36a6.35,6.35,0,0,0,2.11.59,1.5,1.5,0,0,0,1.5-1.5,1.54,1.54,0,0,0-1.5-1.5c.14,0-.3-.07-.29-.07s-.4-.15-.3-.1a1.5,1.5,0,0,0-1.82,2.36l1.6,1.63a1.5,1.5,0,0,0,2.12-2.12Z" transform="translate(-374.94 -71.92)"/><path class="cls-3" d="M516.32,217a4.84,4.84,0,0,0-4.56-2.7,1.53,1.53,0,0,0-1.5,1.5,1.51,1.51,0,0,0,1.5,1.5,1.92,1.92,0,0,1,2,1.21,1.51,1.51,0,0,0,2.05.54,1.53,1.53,0,0,0,.54-2.05Z" transform="translate(-374.94 -71.92)"/><path class="cls-3" d="M516.79,216.46a8,8,0,0,0-5.29-2.4c-1.93-.13-1.92,2.87,0,3a4.82,4.82,0,0,1,3.17,1.52c1.35,1.39,3.47-.73,2.12-2.12Z" transform="translate(-374.94 -71.92)"/><path class="cls-3" d="M517.47,217a9.61,9.61,0,0,0-6.48-3c-1.93-.12-1.92,2.88,0,3a6.47,6.47,0,0,1,4.35,2.08c1.33,1.4,3.45-.72,2.12-2.12Z" transform="translate(-374.94 -71.92)"/><path class="cls-3" d="M525.19,221.68c-4.28-1.25-8.77-2.7-11.07-6.84l-2.05,2.05L514,218a1.5,1.5,0,0,0,1.51-2.59l-1.94-1.13a1.51,1.51,0,0,0-2.05,2.05c2.69,4.84,7.82,6.74,12.87,8.22,1.86.54,2.65-2.35.8-2.89Z" transform="translate(-374.94 -71.92)"/></g><g id="Layer_2" data-name="Layer 2"><path class="cls-3" d="M522.6,226.79l3.71.95a1.51,1.51,0,0,0,1.16-2.74c-1.54-.92-5.77-1.74-5.81,1.2,0,2.73,5,3.48,6.94,3.82.87.16,2-.4,1.9-1.45-.15-1.57-1-2.13-2.31-2.9-1.92-1.13-3.89-2.19-5.84-3.28l-.36,2.74a12.57,12.57,0,0,1,6.9.56c1.6.58,2.64-1.95,1.16-2.74a76.92,76.92,0,0,0-7.56-3.52v2.89a3.37,3.37,0,0,1,2.57.17,1.5,1.5,0,0,0,1.51-2.59l-3.33-2.23-1.16,2.74,5.22,1.19a1.51,1.51,0,0,0,1.16-2.74,14.4,14.4,0,0,0-6.07-2.53c-1.89-.32-2.7,2.57-.8,2.89a12.48,12.48,0,0,1,5.35,2.22l1.16-2.74-5.22-1.19a1.51,1.51,0,0,0-1.16,2.74l3.33,2.23,1.51-2.59a6.7,6.7,0,0,0-4.88-.47,1.51,1.51,0,0,0,0,2.89,69.78,69.78,0,0,1,6.84,3.22l1.16-2.74a15.54,15.54,0,0,0-8.49-.56,1.52,1.52,0,0,0-.36,2.74l3.65,2c1.1.62,2.59,1.14,3.41,2.12l-.44-1.06,0,.48,1.9-1.45c-1.39-.26-4.26-.63-5.18-1.8l.44,1.06,0-.38-.74,1.3a1.91,1.91,0,0,1,2,.29l1.16-2.74-3.71-.95c-1.87-.48-2.67,2.41-.8,2.89Z" transform="translate(-374.94 -71.92)"/><path class="cls-3" d="M521.48,220.26a39.26,39.26,0,0,0-11.06-3.73c-1.53-.27-2.83,2-1.16,2.74l6.07,2.67.76-2.8a16.18,16.18,0,0,1-5.54-.32,1.5,1.5,0,0,0-.8,2.89l5.77,1.91.4-2.95a39.15,39.15,0,0,1-5.86-.23c-1.73-.2-2,2.48-.4,2.95s3.05,1,4.55,1.58l.8-2.89-3.58-.63a1.51,1.51,0,0,0-1.16,2.74c1.87,1.38,5.23,2.71,7.35,1.05a2.53,2.53,0,0,0-.91-4.47c-1.88-.4-2.69,2.5-.8,2.89q.07-.9-.61-.71a3,3,0,0,1-1.36-.19,7,7,0,0,1-2.15-1.16l-1.16,2.74,3.58.63a1.5,1.5,0,0,0,.8-2.89c-1.49-.6-3-1.12-4.55-1.58l-.4,2.95a39.15,39.15,0,0,0,5.86.23,1.51,1.51,0,0,0,.4-2.95l-5.77-1.91-.8,2.89a18.73,18.73,0,0,0,6.33.43c1.29-.14,2.28-2.13.76-2.8l-6.07-2.67-1.16,2.74A36.57,36.57,0,0,1,520,222.85c1.72.87,3.24-1.71,1.51-2.59Z" transform="translate(-374.94 -71.92)"/><path class="cls-3" d="M510.31,219.42a3.64,3.64,0,0,1,2.71-.1c1.35.43,2.66-1.57,1.46-2.51a4,4,0,0,0-2.94-1,1.54,1.54,0,0,0-1.5,1.5,1.52,1.52,0,0,0,1.5,1.5l2.45-.06a1.52,1.52,0,0,0,1.06-2.56,5.08,5.08,0,0,0-3.65-1.4,1.5,1.5,0,0,0,0,3l2.32.06c1.93,0,1.93-2.93,0-3l-2.06-.07c-1.93-.07-1.93,2.93,0,3l2.06.07v-3l-2.32-.06v3a2,2,0,0,1,1.53.52l1.06-2.56-2.45.06v3a1.13,1.13,0,0,1,.82.1l1.46-2.51a6.79,6.79,0,0,0-5,.4,1.51,1.51,0,0,0-.54,2.05,1.53,1.53,0,0,0,2.05.54Z" transform="translate(-374.94 -71.92)"/><path class="cls-3" d="M532.62,373.65a270.14,270.14,0,0,1-28.21,3.1l.4,2.95q12.31-2,24.74-2.75a1.5,1.5,0,0,0,0-3L500,373.6l.4,2.95c10.27-2.61,20.76-2.53,31.27-2.32v-3l-28.8-.05v3q14.6-1,29.22-.67v-3l-30.15,0v3q18.43-.56,36.87-.31v-3l-39.6-.18.4,2.95a180.23,180.23,0,0,1,32-1.68v-3l-35-.39v3l45.67-.58a1.5,1.5,0,0,0,0-3q-17.37-.94-34.76-1.29v3a271.07,271.07,0,0,1,30.74-.81v-3L493.47,365v3q19.91-1,39.84-.42v-3l-32.83-.49v3l53.82-.42a1.5,1.5,0,0,0,0-3l-55.5-1.56v3q24.1-1.46,48.25-1v-3c-20.84,0-41.68-.05-62.48-1.48v3q20.17-.39,40.34-.19v-3l-25.26-.08v3q14.62-.9,29.25-.62v-3l-20.52,0v3q12.54-1,25.11-.7v-3q-14.93.2-29.86-.24v3a153.31,153.31,0,0,1,27.11-.39v-3q-10.92.55-21.85.24v3l21.21-.61-.4-2.95a14.62,14.62,0,0,1-7-.18l.9,2.2.55-.43-1.1-1.45c-.31,5.86-10.32-.38-13-1.09a1.55,1.55,0,0,0-1.69.69c-5.68,8.18,7.71,11.6,12.82,13.12v-2.89a47.26,47.26,0,0,0-17.44,8.59c-1.1.85-.11,2.52,1.06,2.56l25.62.85-.4-2.95-32.26,6,.8,2.89a187.33,187.33,0,0,1,28.31-5.94c1.85-.24,2-3,0-3l-22.59,0a1.5,1.5,0,0,0,0,3l17.73.28-.76-2.8a61.24,61.24,0,0,1-18.13,7c-1.63.35-1.3,3.09.4,2.95,8.42-.71,16.72-2.18,25-3.72l-.8-2.89q-10.08,2.48-20,5.66c-1.54.5-1.37,3.05.4,2.95l19.52-1.18-.4-2.95q-9.83,2.25-19.81,3.65l.8,2.89,21.26-7.33a1.5,1.5,0,0,0-.8-2.89,84.74,84.74,0,0,0-21.35,7.19c-1.38.68-.66,2.79.76,2.8A68.64,68.64,0,0,0,523.64,389l-1.85-1.85-.92,1.18c-1.59,1.06-.13,3.63,1.51,2.59l1.49-.94-2.2-1.69-1.3,1.9c-1,.8-.25,2.12.66,2.51a2.55,2.55,0,0,0,2.58-.16l-2.05-2.05c-2.16,2.83-8-2.15-11.17-1.87a1.51,1.51,0,0,0-.4,2.95l2.31.89-.66-2.51-1.67.74,1.45,1.9,2.8-1.1-.66-2.51a7.28,7.28,0,0,1-3.79,2.83,1.52,1.52,0,0,0,0,2.89l1.77.65-.36-2.74c-2.54,1.29-7.54-12-8.4-13.81s-3.42-.22-2.59,1.51c2,4.21,3.68,10.12,6.73,13.66a4.34,4.34,0,0,0,5.78,1.23c1.24-.63.76-2.33-.36-2.74l-1.77-.65v2.89a11.48,11.48,0,0,0,5.11-3.6,1.52,1.52,0,0,0-.66-2.51c-3-1-5.31.35-6.49,3.2-.38.93.57,1.89,1.45,1.9a4.41,4.41,0,0,0,3.8-1.61,1.52,1.52,0,0,0-.66-2.51l-2.31-.89-.4,2.95c5.42-.48,9.14,6.45,13.76.38,1-1.34-.87-2.57-2.05-2.05l-.27-.14.66,2.51a5.65,5.65,0,0,0,2.07-3.22,1.52,1.52,0,0,0-2.2-1.69l-1.49.94,1.51,2.59a4.26,4.26,0,0,0,2.3-3c.4-1.14-.81-2.08-1.85-1.85a64.81,64.81,0,0,1-14.58,1.55l.76,2.8a81.76,81.76,0,0,1,20.63-6.89l-.8-2.89L507.58,388a1.5,1.5,0,0,0,.8,2.89q10-1.4,19.81-3.65c1.63-.37,1.3-3-.4-2.95l-19.52,1.18.4,2.95q9.88-3.19,20-5.66c1.9-.47,1.08-3.24-.8-2.89-8,1.49-16.07,2.92-24.23,3.61l.4,2.95a63.79,63.79,0,0,0,18.85-7.25,1.51,1.51,0,0,0-.76-2.8l-17.73-.28v3l22.59,0v-3a192.48,192.48,0,0,0-29.1,6,1.5,1.5,0,0,0,.8,2.89l32.26-6c1.72-.32,1.23-2.89-.4-2.95l-25.62-.85,1.06,2.56A43.75,43.75,0,0,1,522,370.07a1.51,1.51,0,0,0,0-2.89c-3.11-.93-15-3.06-11-8.72l-1.69.69c4,1.09,7.56,4.48,12,3.52,2.83-.62,4.64-2.45,4.8-5.33a1.51,1.51,0,0,0-1.1-1.45c-1.86-.37-3.08,0-3.94,1.81a1.52,1.52,0,0,0,.9,2.2,19.4,19.4,0,0,0,8.58.18c1.67-.32,1.28-3-.4-2.95l-21.21.61a1.5,1.5,0,0,0,0,3q10.93.31,21.85-.24a1.5,1.5,0,0,0,0-3,153.31,153.31,0,0,0-27.11.39,1.5,1.5,0,0,0,0,3q14.93.43,29.86.24a1.5,1.5,0,0,0,0-3q-12.58-.26-25.11.7c-1.9.15-2,3,0,3l20.52,0a1.5,1.5,0,0,0,0-3q-14.64-.28-29.25.62a1.5,1.5,0,0,0,0,3l25.26.08a1.5,1.5,0,0,0,0-3q-20.17-.2-40.34.19a1.5,1.5,0,0,0,0,3c20.8,1.43,41.64,1.48,62.48,1.48a1.5,1.5,0,0,0,0-3q-24.14-.51-48.25,1a1.5,1.5,0,0,0,0,3l55.5,1.56v-3l-53.82.42a1.5,1.5,0,0,0,0,3l32.83.49c1.93,0,1.93-2.95,0-3q-19.93-.55-39.84.42a1.5,1.5,0,0,0,0,3l44.81.18a1.5,1.5,0,0,0,0-3,271.07,271.07,0,0,0-30.74.81,1.5,1.5,0,0,0,0,3q17.39.35,34.76,1.29v-3l-45.67.58a1.5,1.5,0,0,0,0,3l35,.39c1.94,0,1.93-2.93,0-3a184.62,184.62,0,0,0-32.85,1.79c-1.71.24-1.25,2.94.4,2.95l39.6.18a1.5,1.5,0,0,0,0-3q-18.44-.25-36.87.31a1.5,1.5,0,0,0,0,3l30.15,0a1.5,1.5,0,0,0,0-3q-14.63-.31-29.22.67c-1.91.13-2,3,0,3l28.8.05a1.5,1.5,0,0,0,0-3c-10.79-.21-21.54-.25-32.07,2.43a1.51,1.51,0,0,0,.4,2.95l29.59.35v-3q-12.84.81-25.54,2.86c-1.67.27-1.28,3,.4,2.95a277.89,277.89,0,0,0,29-3.21c1.9-.31,1.09-3.2-.8-2.89Z" transform="translate(-374.94 -71.92)"/><path class="cls-3" d="M520.88,378.29c-.53,4.66-2.24,10.45-.59,15a1.52,1.52,0,0,0,2.2.9c4-2.24,5.33-9.13,2.61-12.84-2.59-3.53-5.94-6.12-8.17-10a37.21,37.21,0,0,1-4.54-13.93l-2.26,1.3c3.11,1.43,9,3.69,12.4,1.74,1.94-1.13,1.9-3.06.16-4.31l-.76,2.8,2.39.29c1.91.23,1.9-2.77,0-3l-2.39-.29c-1.64-.2-1.81,2-.76,2.8-2.44-1.75-6.66-1.29-9.54-2.61-.9-.41-2.41,0-2.26,1.3a41.25,41.25,0,0,0,5,15.45c2.38,4.2,14.34,14.5,6.63,18.77l2.2.9c-1.52-4.19.21-9.89.7-14.19.22-1.92-2.78-1.9-3,0Z" transform="translate(-374.94 -71.92)"/></g></svg>